<svg xmlns="http://www.w3.org/2000/svg" viewBox="0 0 170 40.2"><g data-name="Layer 2"><g data-name="Layer 1"><rect width="170" height="40.2" rx="1.12" fill="#059669"/><path d="M20.46 19.13h9.78q-.48 6.07-.68 13.49c-2 .4-3.82.68-5.44.84s-3 .24-4.13.24a24.67 24.67 0 01-5.93-.7 11.8 11.8 0 01-4.61-2.17 9.56 9.56 0 01-2.87-4 13.78 13.78 0 01-1-5.2 14 14 0 01.74-4.51 13.13 13.13 0 012.17-4 12.65 12.65 0 013.48-3 13.71 13.71 0 014.34-1.65 25.88 25.88 0 014.85-.44 40.38 40.38 0 018.09.97c0 1.37.08 2.81.2 4.31a24.75 24.75 0 00-7.74-1.43 13.6 13.6 0 00-4.22.64 9.07 9.07 0 00-3.42 2 8.63 8.63 0 00-2.2 3.3 11.37 11.37 0 00-.75 4.07 9.79 9.79 0 00.88 4.17 6.08 6.08 0 002.89 2.86 10.27 10.27 0 004.66 1 16.77 16.77 0 002.27-.17 17.08 17.08 0 002.72-.59l.3-6.36H23.4c-.81 0-1.84 0-3.09.05.09-1.62.15-2.85.15-3.72zm13.9 14.14q.54-5.46.87-12.16t.38-12.59h5.75q-.24 3.27-.44 7.44l-.37 7.27q-.16 3.11-.24 6.2h8.9c.92 0 1.83-.06 2.72-.1-.11 1.18-.2 2.49-.29 3.93H37.77zm20.04 0q.54-5.4.82-12.42t.27-12.33h3.64c.98 0 2.08 0 3.09-.06s2.08-.05 3.2-.05a26.41 26.41 0 013.76.24 7.07 7.07 0 012.95 1.08A5.53 5.53 0 0174 11.84a6.06 6.06 0 01.63 2.83 7.56 7.56 0 01-.24 1.93 7 7 0 01-.7 1.72 6.45 6.45 0 01-1.09 1.42 7.26 7.26 0 01-1.26 1 8.2 8.2 0 01-1.43.6c-.53.17-1.24.38-2.14.62l1.24 2.39c.39.76 1.15 2.13 2.26 4.1l1.83 3.21q.15.25.87 1.65h-6l-2-4.82q-.52-1.11-1.26-2.61l-2.19-4.41c-.22-.41-.52-1-.91-1.85a12.24 12.24 0 002.22.22 7.6 7.6 0 002.84-.51 4.05 4.05 0 002-1.57 4.12 4.12 0 00.69-2.31 3.3 3.3 0 00-.3-1.41 2.58 2.58 0 00-1-1.11 4.18 4.18 0 00-1.69-.58 16 16 0 00-2-.13h-3.8l-.33 7.45-.24 13.6h-2.81zm41.48-22.09h3.42c-.11 1.42-.19 3-.24 4.73-.7.14-1.33.23-1.9.29a14.15 14.15 0 01-1.45.09 8.52 8.52 0 01-2.07-.24 4 4 0 01-1.64-.76 3.28 3.28 0 01-1-1.39 4.82 4.82 0 01-.35-1.81 5 5 0 01.26-1.59 4.71 4.71 0 01.76-1.39 4.6 4.6 0 011.22-1.06 4.93 4.93 0 011.52-.58 9.19 9.19 0 011.7-.15 14.24 14.24 0 012.89.33c0 .48 0 1 .07 1.51a8.46 8.46 0 00-2.71-.5 4.78 4.78 0 00-1.48.22 3.25 3.25 0 00-1.2.69 3.11 3.11 0 00-.77 1.15 4.11 4.11 0 00-.26 1.43 3.43 3.43 0 00.3 1.46 2.13 2.13 0 001 1 3.6 3.6 0 001.64.36 6.28 6.28 0 00.79-.06 6.06 6.06 0 001-.21l.11-2.23h-1.67c.04-.55.06-.99.06-1.29zm4.79 4.96l.19-3V9.7h1.72v.89a5.94 5.94 0 01.41-.51 2.82 2.82 0 01.39-.29 1.76 1.76 0 01.47-.18 2.33 2.33 0 011 0q0 .59.06 1.5a2.49 2.49 0 00-.68-.1 1.67 1.67 0 00-.65.11 1.4 1.4 0 00-.51.33 2 2 0 00-.37.56 2.64 2.64 0 00-.18.69c0 .22-.06.6-.08 1.13s0 1.06 0 1.58v.75h-.89zm10.82-1.45c-.06.25-.13.7-.24 1.35-.45.1-.84.16-1.15.2s-.63.05-.95.05a6.17 6.17 0 01-1.49-.17 2.65 2.65 0 01-1.88-1.68 4.07 4.07 0 01-.23-1.35 4.33 4.33 0 01.27-1.51 3.17 3.17 0 01.76-1.2 2.91 2.91 0 011.12-.66 4.44 4.44 0 011.3-.19 4.51 4.51 0 011.23.16 2.27 2.27 0 011 .53 2.36 2.36 0 01.61.88 3.06 3.06 0 01.21 1.15 3.42 3.42 0 01-.06.62h-4.65v.38a2 2 0 00.15.78 1.62 1.62 0 00.43.6 1.64 1.64 0 00.66.37 2.91 2.91 0 00.76.11 5.43 5.43 0 001-.09 10 10 0 001.15-.33zm-4.1-2.56h3a4.24 4.24 0 000-.45 1.17 1.17 0 00-.09-.33.88.88 0 00-.18-.33.85.85 0 00-.26-.24 1.69 1.69 0 00-.36-.15 1.86 1.86 0 00-.42-.05 1.54 1.54 0 00-.52.09 1.35 1.35 0 00-.46.24 1.25 1.25 0 00-.34.35 2 2 0 00-.2.38 4.15 4.15 0 00-.17.49zm11.39 2.56q-.09.38-.24 1.35c-.46.1-.84.16-1.15.2s-.63.05-1 .05a6.11 6.11 0 01-1.49-.17 2.7 2.7 0 01-1.15-.6 2.76 2.76 0 01-.73-1.08 3.84 3.84 0 01-.24-1.35 4.12 4.12 0 01.28-1.51 3.05 3.05 0 01.76-1.2 2.84 2.84 0 011.18-.66 4.44 4.44 0 011.32-.19 4.51 4.51 0 011.23.16 2.33 2.33 0 011 .53 2.49 2.49 0 01.61.88 3.06 3.06 0 01.21 1.15 3.42 3.42 0 01-.06.62h-4.66v.38a2 2 0 00.15.78 1.59 1.59 0 00.42.6 1.75 1.75 0 00.67.37 2.91 2.91 0 00.76.11 5.52 5.52 0 001-.09 10 10 0 001.13-.33zm-4.11-2.56h3a4.24 4.24 0 000-.45 1.65 1.65 0 00-.09-.33.88.88 0 00-.18-.33 1 1 0 00-.27-.24 1.6 1.6 0 00-.35-.15 2 2 0 00-.43-.05 1.54 1.54 0 00-.52.09 1.45 1.45 0 00-.46.24 1.36 1.36 0 00-.33.35 1.56 1.56 0 00-.2.38c-.08.13-.12.29-.17.49zm5.58 4.01c.1-1 .18-2 .25-3.24s.1-2.27.11-3.22h1.81l-.07 1.08a4.32 4.32 0 01.34-.45 2.55 2.55 0 01.38-.32 2.34 2.34 0 01.5-.25 3.16 3.16 0 01.59-.16 5.06 5.06 0 01.68-.05 3.93 3.93 0 011.09.14 2 2 0 01.83.45 1.6 1.6 0 01.42.68 2.88 2.88 0 01.1.78v.55l-.13 2.77v1.24h-1.86c0-.37.08-1 .13-1.93s.07-1.52.07-1.82a1.74 1.74 0 00-.16-.81 1 1 0 00-.49-.46 1.58 1.58 0 00-.72-.16 1.69 1.69 0 00-1.28.57 2 2 0 00-.39.71 6.53 6.53 0 00-.22 1.46c0 .61-.07 1.42-.1 2.44h-.88zm11.69 0q.19-1.92.3-4.26c.08-1.56.12-3 .14-4.41h2c-.06.76-.11 1.63-.15 2.6l-.13 2.55c0 .73-.07 1.45-.09 2.17h4.12c0 .41-.07.87-.1 1.38h-6.05zm7.4-5.04c.06-.31.1-.52.11-.65s0-.3.08-.55a12.9 12.9 0 011.53-.29 9.31 9.31 0 011.27-.08 4.67 4.67 0 011.28.16 1.92 1.92 0 01.92.52 1.42 1.42 0 01.33 1c0 .24 0 .85-.1 1.84s-.11 2-.12 3.07h-1.8c0-.52.1-1.11.13-1.78l.09-1.58-.37.22-.29.12-.56.16-.64.2a2.41 2.41 0 00-.43.18 1.4 1.4 0 00-.33.24.79.79 0 00-.19.27.81.81 0 00-.06.31.73.73 0 00.15.46.81.81 0 00.39.27 1.84 1.84 0 00.55.07h.43a3.27 3.27 0 00.61-.16c-.09.25-.19.61-.31 1.08-.3 0-.54.09-.72.1h-.49a3.3 3.3 0 01-1.32-.22 1.49 1.49 0 01-.76-.68 2.09 2.09 0 01-.24-1 1.7 1.7 0 01.09-.54 1.83 1.83 0 01.28-.49 2.56 2.56 0 01.48-.43 3.9 3.9 0 01.84-.4 12.68 12.68 0 011.46-.39c.17 0 .33-.07.51-.12l.41-.14a.91.91 0 00.27-.18.89.89 0 00.17-.24.52.52 0 000-.24.57.57 0 00-.16-.42.77.77 0 00-.42-.24 2.45 2.45 0 00-.56-.07 7 7 0 00-2.51.62zm6.89 5.04c.08-.81.16-2.21.25-4.2s.14-3.48.15-4.47h1.85c-.07.6-.13 1.35-.17 2.26.42-.08.75-.13 1-.16a6.06 6.06 0 01.73 0 4 4 0 011.68.31 2.38 2.38 0 011.09 1 3.47 3.47 0 01.42 1.76 4.72 4.72 0 01-.21 1.41 3.83 3.83 0 01-.61 1.21 2.51 2.51 0 01-1 .78 3.29 3.29 0 01-1.26.25 3 3 0 01-.62-.06 2.13 2.13 0 01-.52-.18 1.75 1.75 0 01-.42-.26 2.26 2.26 0 01-.31-.31 3 3 0 01-.29-.42v1.08h-.82zm2-5.11l-.05 1.08v.68a3.73 3.73 0 00.17 1.24 1.31 1.31 0 00.54.7 1.55 1.55 0 00.87.25 1.49 1.49 0 00.91-.28 1.73 1.73 0 00.59-.83 3.17 3.17 0 00.21-1.15 2.09 2.09 0 00-.46-1.4 1.71 1.71 0 00-1.36-.52 4.26 4.26 0 00-.61 0c-.27.08-.53.14-.85.2zm11.84 3.66c0 .25-.13.7-.23 1.35-.46.1-.84.16-1.16.2s-.63.05-.94.05a6.11 6.11 0 01-1.49-.17 2.7 2.7 0 01-1.15-.6 2.66 2.66 0 01-.73-1.08 3.84 3.84 0 01-.24-1.35 4.33 4.33 0 01.27-1.51 3.19 3.19 0 01.77-1.2 2.84 2.84 0 011.12-.66 4.42 4.42 0 011.31-.19 4.53 4.53 0 011.24.16 2.39 2.39 0 011 .53 2.62 2.62 0 01.61.88 3.06 3.06 0 01.21 1.15 2.74 2.74 0 01-.07.62h-4.65v.38a2.21 2.21 0 00.14.78 1.62 1.62 0 00.43.6 1.75 1.75 0 00.67.37 2.85 2.85 0 00.76.11 5.52 5.52 0 001-.09 9.89 9.89 0 001.13-.33zM156 12.13h3a2.57 2.57 0 000-.45 1.57 1.57 0 00-.08-.33 1.29 1.29 0 00-.18-.33 1 1 0 00-.27-.24 1.6 1.6 0 00-.35-.15 2 2 0 00-.43-.05 1.54 1.54 0 00-.52.09 1.45 1.45 0 00-.46.24 1.41 1.41 0 00-.34.35 1.92 1.92 0 00-.19.38 3.89 3.89 0 00-.18.49zm5.6 4.01c.07-.72.14-2 .23-3.86s.15-3.46.17-4.81h1.86l-.16 2.32-.22 5.21v1.19h-.89zm-55.09 15.59c.13-1.26.22-2.71.29-4.34s.09-3.08.09-4.32h3.48a8.83 8.83 0 011.32.08 2.37 2.37 0 011 .38 2 2 0 01.67.72 2.12 2.12 0 01.22 1 3 3 0 01-.08.68 2.63 2.63 0 01-.25.6 2.36 2.36 0 01-.38.5 2.4 2.4 0 01-.44.33 2.52 2.52 0 01-.5.22l-.75.21.43.84c.14.27.4.74.79 1.43l.65 1.13.3.57h-2.1l-.7-1.68c-.13-.26-.27-.57-.45-.92l-.76-1.54c-.08-.14-.19-.36-.32-.65a4.48 4.48 0 00.77.08 2.66 2.66 0 001-.18 1.41 1.41 0 00.69-.55 1.47 1.47 0 00.24-.81 1.13 1.13 0 00-.1-.49 1 1 0 00-.35-.39 1.38 1.38 0 00-.59-.2 5.34 5.34 0 00-.69 0h-1.33l-.11 2.6-.12 4.76h-1.95zm13.86-1.44c-.05.25-.13.7-.23 1.35-.46.1-.84.16-1.16.2s-.62.05-.94.05a6.11 6.11 0 01-1.49-.17 2.7 2.7 0 01-1.15-.6 2.66 2.66 0 01-.73-1.08 3.84 3.84 0 01-.24-1.35 4.12 4.12 0 01.28-1.51 3.05 3.05 0 01.76-1.2 2.84 2.84 0 011.12-.66 4.44 4.44 0 011.32-.19 4.51 4.51 0 011.23.16 2.33 2.33 0 011 .53 2.49 2.49 0 01.61.88 3.06 3.06 0 01.21 1.15 3.42 3.42 0 01-.06.62h-4.66v.38a2 2 0 00.15.78 1.59 1.59 0 00.42.6 1.75 1.75 0 00.67.37 2.91 2.91 0 00.76.11 5.52 5.52 0 001-.09 9.89 9.89 0 001.13-.33zm-4.1-2.56h3v-.45a2.77 2.77 0 00-.09-.33.88.88 0 00-.18-.33 1 1 0 00-.27-.24 1.6 1.6 0 00-.35-.15 2 2 0 00-.43 0 1.54 1.54 0 00-.52.09 1.45 1.45 0 00-.46.24 1.41 1.41 0 00-.34.35 1.92 1.92 0 00-.19.38c-.08.08-.12.24-.17.44zM127 30.27c0 .17-.06.37-.1.59s-.08.49-.13.82a7.94 7.94 0 01-1.79.21 4.62 4.62 0 01-1-.1 2.61 2.61 0 01-.89-.34 2.72 2.72 0 01-.72-.64 2.82 2.82 0 01-.46-1 4.18 4.18 0 01-.16-1.17 4.7 4.7 0 01.26-1.54 2.93 2.93 0 01.75-1.2 2.61 2.61 0 011.1-.63 4.71 4.71 0 011.35-.17 8.32 8.32 0 01.85 0 9.16 9.16 0 011 .2l.1 1.39a5.11 5.11 0 00-1.65-.33 2.2 2.2 0 00-.81.15 1.61 1.61 0 00-.7.49 1.78 1.78 0 00-.39.73 2.94 2.94 0 00-.12.84 2.62 2.62 0 00.19 1.05 1.36 1.36 0 00.64.68 2.19 2.19 0 001 .24 3.82 3.82 0 00.69-.07 5.75 5.75 0 00.99-.2zm.46 4.38c-.08-.64-.14-1.09-.19-1.37a2.73 2.73 0 001.15.28 1.32 1.32 0 00.34 0 1.24 1.24 0 00.32-.12.77.77 0 00.19-.14 1.78 1.78 0 00.27-.35 5.51 5.51 0 00.3-.5 4.18 4.18 0 00.21-.53L128.73 28l-1-2.74h1.84c.09.35.18.66.25.91l.61 2c.18.61.32 1.07.4 1.38s.11.47.17.81c.13-.39.24-.7.33-.94l.69-1.77.62-1.51.34-.88h1.78l-2.44 5.47-1.06 2.42a3.8 3.8 0 01-.43.73 1.87 1.87 0 01-.36.38 1.73 1.73 0 01-.41.25 2.75 2.75 0 01-.59.21 3.54 3.54 0 01-.73.07h-.58a5.86 5.86 0 01-.7-.14zm12.86-4.38a5.6 5.6 0 01-.1.59c0 .22-.08.49-.13.82a7.88 7.88 0 01-1.79.21 4.62 4.62 0 01-1-.1 2.61 2.61 0 01-.89-.34 2.72 2.72 0 01-.72-.64 2.82 2.82 0 01-.46-1 4.18 4.18 0 01-.16-1.17 4.7 4.7 0 01.26-1.54 2.93 2.93 0 01.75-1.2 2.61 2.61 0 011.1-.63 4.8 4.8 0 011.35-.17 8.19 8.19 0 01.85 0 9.74 9.74 0 011 .2l.09 1.39a5.11 5.11 0 00-1.65-.33 2.24 2.24 0 00-.81.15 1.61 1.61 0 00-.66.46 1.91 1.91 0 00-.39.73 2.94 2.94 0 00-.12.84 2.62 2.62 0 00.19 1.05 1.36 1.36 0 00.64.68 2.21 2.21 0 001 .24 3.82 3.82 0 00.69-.07 5.45 5.45 0 00.96-.17zm1.3 1.46c.06-.71.14-2 .23-3.85s.15-3.46.17-4.81h1.85l-.15 2.32-.22 5.16v1.18h-1.86zm3.44 0c.06-.63.11-1.16.14-1.59 0-.68.08-1.46.11-2.34s.05-1.72.07-2.52h1.85c-.06.74-.11 1.44-.14 2.11s-.06 1.43-.08 2.29 0 1.55 0 2.05h-1.93zm.35-7.56V23h1.86v1.2h-1.83zm3.07 7.56c.1-1 .18-2 .24-3.23s.11-2.27.12-3.22h1.81l-.07 1.08a4.32 4.32 0 01.34-.45 2.55 2.55 0 01.38-.32 2 2 0 01.5-.25 3 3 0 01.59-.16 4.94 4.94 0 01.68-.05 3.81 3.81 0 011.08.14 2 2 0 01.84.45 1.6 1.6 0 01.42.68 3.33 3.33 0 01.1.78v.55l-.13 2.77v1.23h-1.88c0-.36.07-1 .12-1.92s.08-1.52.08-1.82a1.74 1.74 0 00-.16-.81 1 1 0 00-.49-.46 1.58 1.58 0 00-.72-.16 1.69 1.69 0 00-1.28.57 2 2 0 00-.39.71 6.53 6.53 0 00-.22 1.46c0 .61-.08 1.42-.1 2.43h-1.86zm8.83 1.34a7.86 7.86 0 002.47.47 3.1 3.1 0 00.76-.09 1.71 1.71 0 00.59-.29 1.18 1.18 0 00.38-.51 2.3 2.3 0 00.17-.74c0-.28.06-.7.07-1.27a3.68 3.68 0 01-.44.52 2.1 2.1 0 01-.47.34 2.75 2.75 0 01-.65.24 3.19 3.19 0 01-.77.09 3.36 3.36 0 01-1.06-.17 2.42 2.42 0 01-.89-.55 2.49 2.49 0 01-.6-.95 3.57 3.57 0 01-.2-1.18 4.29 4.29 0 01.33-1.67 3.24 3.24 0 011-1.31 3.61 3.61 0 011.38-.7 6.34 6.34 0 011.63-.19c.33 0 .7 0 1.12.06s1 .12 1.66.24l-.14 2-.16 2.59-.05 2.28a4.4 4.4 0 01-.09.74 2.19 2.19 0 01-.24.65 2.07 2.07 0 01-1 .87 3.42 3.42 0 01-.79.22 5.42 5.42 0 01-1 .09 13 13 0 01-1.32-.07 12.14 12.14 0 01-1.6-.29zm4.63-6.52a4.85 4.85 0 00-1-.12 2.8 2.8 0 00-1.37.31 2 2 0 00-.83.88 2.71 2.71 0 00-.29 1.22 2.18 2.18 0 00.18.89 1.23 1.23 0 00.55.62 1.69 1.69 0 00.84.21 1.72 1.72 0 00.6-.1 1.49 1.49 0 00.51-.31 2.14 2.14 0 00.41-.52 2.29 2.29 0 00.24-.71 8.73 8.73 0 00.12-1c0-.37.02-.83.04-1.37z" fill="#fff"/></g></g></svg>